# xmcd
#
# Track frame offsets:
#	150
#	16651
#	37393
#	55938
#	73806
#	92065
#	106955
#	127614
#	143435
#	159937
#	179350
#	196179
#	212641
#	231681
#	247672
#	267363
#	294754
#
# Disc length: 3938 seconds
#
# Revision: 1
# Processed by: cddbd v1.5.1PL2 Copyright (c) Steve Scherf et al.
# Submitted via: audiograbber 1.83.01
#
DISCID=e50f6011
DTITLE=Sound Choice - SC8936
DYEAR=2005
DGENRE=Karaoke
TTITLE0=Keith, Toby - You Caught Me At A Bad Time
TTITLE1=Hill, Faith and Tim McGraw - Like We Never Loved At All
TTITLE2=McEntire, Reba - You're Gonna Be
TTITLE3=Anderson, Keith - XXL
TTITLE4=Paisley, Brad - Flowers
TTITLE5=Keith, Toby - Big Blue Note
TTITLE6=Hill, Faith - Stealing Kisses
TTITLE7=McBride, Martina - I Never Promised You A Rose Garden
TTITLE8=Strait, George - She Let Herself Go
TTITLE9=Allan, Gary - Best I Ever Had
TTITLE10=Wilson, Gretchen - All Jacked Up
TTITLE11=Jackson, Alan - USA Today
TTITLE12=Chesney, Kenny - Who You'd Be Today
TTITLE13=Britt, Catherine and Elton John - Where We Both Say Goodbye
TTITLE14=Currington, Billy - Must Be Doin' Somethin' Right
TTITLE15=Britt, Catherine and Elton John - Where We Both Say Goodbye (Duet Versio
TTITLE15=n)
TTITLE16=Data - Data Track
EXTD=
EXTT0=
EXTT1=
EXTT2=
EXTT3=
EXTT4=
EXTT5=
EXTT6=
EXTT7=
EXTT8=
EXTT9=
EXTT10=
EXTT11=
EXTT12=
EXTT13=
EXTT14=
EXTT15=
EXTT16=
PLAYORDER=
